/kaggle/working/opencap-processing/OpenCapData_ab7eb7cf-817d-4035-a30b-ee68773906cb/OpenSimData/Dynamics/Suhasno_4/GRF_resultant_Suhasno_4_Suhasno_4_window_1.mot
version=1
nRows=20
nColumns=19
inDegrees=yes
endheader 
time	ground_force_right_vx	ground_force_right_vy	ground_force_right_vz	ground_force_right_px	ground_force_right_py	ground_force_right_pz	ground_torque_right_x	ground_torque_right_y	ground_torque_right_z	ground_force_left_vx	ground_force_left_vy	ground_force_left_vz	ground_force_left_px	ground_force_left_py	ground_force_left_pz	ground_torque_left_x	ground_torque_left_y	ground_torque_left_z	
          1.00000000	         -0.00090595	          0.00102692	         -0.00036971	          1.14119212	          0.00000000	          0.01322889	          0.00000000	          0.00000001	          0.00000000	        135.17045618	        549.06098376	         70.57177907	          1.27085924	          0.00000000	         -0.26034493	          0.00000000	          0.65421571	          0.00000000	
          1.05000000	         -0.00031515	          0.00023005	         -0.00007433	          1.18433152	          0.00000000	          0.02897911	          0.00000000	         -0.00000023	          0.00000000	        139.75390723	        515.43446175	         39.23401421	          1.29031739	          0.00000000	         -0.27010768	          0.00000000	          1.26619956	          0.00000000	
          1.10000000	         -0.00009073	          0.00004882	         -0.00001477	          1.26541896	          0.00000000	          0.04231434	          0.00000000	          0.00000002	          0.00000000	         54.76750731	        338.16878814	         24.82880803	          1.29338393	          0.00000000	         -0.27787659	          0.00000000	         -0.44808166	          0.00000000	
          1.15000000	         -0.00089271	          0.00045671	         -0.00010257	          1.34158544	          0.00000000	          0.04048520	          0.00000000	          0.00000045	          0.00000000	        -32.34295916	        389.03421357	         41.85803788	          1.29462654	          0.00000000	         -0.28259329	          0.00000000	          0.14296139	          0.00000000	
          1.20000000	         -0.34297365	          0.20086551	          0.00326552	          1.31204728	          0.00000000	          0.00537820	          0.00000000	          0.00001307	          0.00000000	         52.56710680	        655.04904889	         61.39045111	          1.29204539	          0.00000000	         -0.28197155	          0.00000000	          0.61125178	          0.00000000	
          1.25000000	        -32.19236359	         20.48971874	          2.87458736	          1.37818047	          0.00000000	          0.00260357	          0.00000000	         -0.00035963	          0.00000000	        120.32939349	        665.72173654	         48.54046288	          1.28839623	          0.00000000	         -0.28151813	          0.00000000	         -1.78210198	          0.00000000	
          1.30000000	        -58.29817601	         39.59072286	         13.34627440	          1.44625303	          0.00000000	         -0.00848001	          0.00000000	         -0.00027473	          0.00000000	         68.41270039	        381.96683668	         23.76459235	          1.29456837	          0.00000000	         -0.28688491	          0.00000000	         -2.45461009	          0.00000000	
          1.35000000	        -63.94713648	         88.15559485	         69.98800001	          1.49145431	          0.00000000	         -0.02479076	          0.00000000	         -0.00047345	          0.00000000	        104.16372619	        503.01365266	         23.49023029	          1.31101063	          0.00000000	         -0.29258656	          0.00000000	         -4.56632118	          0.00000000	
          1.40000000	         57.44268770	        201.27523190	          0.16193146	          1.50935295	          0.00000000	         -0.03275295	          0.00000000	          0.10071168	          0.00000000	         50.60606335	        547.33162971	         61.56849459	          1.32767740	          0.00000000	         -0.29162088	          0.00000000	         -2.44018173	          0.00000000	
          1.45000000	         85.32405584	        206.20592479	        -27.33250088	          1.55805772	          0.00000000	         -0.00931665	          0.00000000	          1.75788106	          0.00000000	        -14.22113674	        304.58476833	         38.17344039	          1.35259444	          0.00000000	         -0.29251020	          0.00000000	         -0.92635469	          0.00000000	
          1.50000000	       -106.35238234	        287.23742777	         13.28800004	          1.60668635	          0.00000000	          0.00920813	          0.00000000	         -1.14286488	          0.00000000	        128.19409189	        329.32012790	        -36.39973030	          1.36781762	          0.00000000	         -0.28750354	          0.00000000	         -2.88221616	          0.00000000	
          1.55000000	       -138.42131235	        134.88299834	         35.45599475	          1.58891868	          0.00000000	         -0.00459911	          0.00000000	         -0.90256632	          0.00000000	         93.09413843	        263.28679055	        -16.57976774	          1.37707079	          0.00000000	         -0.28174062	          0.00000000	         -0.42655760	          0.00000000	
          1.60000000	         66.68850898	        488.49039315	          6.46641162	          1.58271217	          0.00000000	         -0.00581189	          0.00000000	         -7.44506809	          0.00000000	        100.16428372	        201.53978683	        -49.14165434	          1.38015025	          0.00000000	         -0.27784510	          0.00000000	         -0.12400877	          0.00000000	
          1.65000000	        172.00626864	        765.78702223	        -44.99479997	          1.59288326	          0.00000000	          0.00884441	          0.00000000	         -4.41767796	          0.00000000	          0.22658345	         -0.30117364	         -0.23646719	          0.00000000	          0.00000000	          0.00000000	          0.00000000	          0.26502325	          0.00000000	
          1.70000000	         57.94582418	        435.36292857	        -16.35058514	          1.61847045	          0.00000000	          0.02371645	          0.00000000	          1.31095688	          0.00000000	          0.00740973	         -0.00490213	         -0.00234991	          0.00000000	          0.00000000	          0.00000000	          0.00000000	          0.00112281	          0.00000000	
          1.75000000	        -31.70389186	        359.77776855	        -34.25351717	          1.64123797	          0.00000000	          0.03113344	          0.00000000	          1.83728295	          0.00000000	         -0.01345571	          0.00672808	          0.00337737	          1.55690635	          0.00000000	         -0.33638469	          0.00000000	          0.00000000	          0.00000000	
          1.80000000	         -5.19089550	        395.84715765	        -20.13722316	          1.65529381	          0.00000000	          0.02965143	          0.00000000	          3.79097531	          0.00000000	         -0.00235611	          0.00109961	          0.00049327	          1.68479909	          0.00000000	         -0.36255560	          0.00000000	          0.00000000	          0.00000000	
          1.85000000	         76.38351658	        540.24173780	        -20.52471638	          1.65926705	          0.00000000	          0.02287800	          0.00000000	          3.70823141	          0.00000000	         -0.00000140	          0.00000070	          0.00000002	          1.80698116	          0.00000000	         -0.36879216	          0.00000000	          0.00000000	          0.00000000	
          1.90000000	        128.27171458	        579.99863624	        -10.89885349	          1.66155757	          0.00000000	          0.01660954	          0.00000000	          2.58434415	          0.00000000	         -0.00013202	          0.00007149	          0.00000880	          1.73498730	          0.00000000	         -0.34849891	          0.00000000	          0.00000001	          0.00000000	
          1.95000000	        131.21284476	        546.41739747	          2.49117517	          1.66731163	          0.00000000	          0.01331839	          0.00000000	          2.32464673	          0.00000000	        -29.29001987	         16.76333787	         -5.99568326	          1.80296074	          0.00000000	         -0.34222803	          0.00000000	          0.00005778	          0.00000000	
